<?xml version="1.0" encoding="UTF-8"?>
<svg width="221px" height="221px" viewBox="0 0 221 221" version="1.1" xmlns="http://www.w3.org/2000/svg" xmlns:xlink="http://www.w3.org/1999/xlink">
    <!-- Generator: sketchtool 52.3 (67297) - http://www.bohemiancoding.com/sketch -->
    <title>BB3E8292-FDFC-4820-8272-CAEF518E6902</title>
    <desc>Created with sketchtool.</desc>
    <g id="Desktop-design" stroke="none" stroke-width="1" fill="none" fill-rule="evenodd">
        <g id="TRACKING" transform="translate(-933.000000, -310.000000)">
            <rect fill="#FFFFFF" x="0" y="0" width="1920" height="1181"></rect>
            <g id="BODY-2" transform="translate(269.000000, 60.000000)" fill="#646569">
                <g id="DATOS" transform="translate(246.000000, 320.000000)">
                    <g id="input_calendar">
                        <g id="calendar" transform="translate(518.000000, 30.000000)">
                            <path d="M17.832809,2.37811476 C19.138077,2.37811476 20.199997,3.4400349 20.199997,4.7453018 L20.199997,18.632799 C20.199997,19.938065 19.138075,20.999987 17.832809,20.999987 L2.367187,20.999987 C1.06192017,20.999987 -3.39284156e-13,19.938065 -3.39284156e-13,18.632799 L-3.39284156e-13,4.7453018 C-3.39284156e-13,3.4400349 1.06192017,2.37811476 2.367187,2.37811476 L3.3140619,2.37811476 L3.3140619,0.79999 L4.8921866,0.79999 L4.8921866,2.37811476 L15.3078098,2.37811476 L15.3078098,0.79999 L16.885935,0.79999 L16.885935,2.37811476 L17.832809,2.37811476 Z M18.621872,18.632799 L18.621872,8.2171763 L1.57812476,8.2171763 L1.57812476,18.632799 C1.57812476,19.067889 1.932098,19.421862 2.367187,19.421862 L17.832809,19.421862 C18.267899,19.421862 18.621872,19.067889 18.621872,18.632799 Z M18.621872,6.6390513 L18.621872,4.7453018 C18.621872,4.3102127 18.267899,3.9562395 17.832809,3.9562395 L16.885935,3.9562395 L16.885935,5.534364 L15.3078098,5.534364 L15.3078098,3.9562395 L4.8921866,3.9562395 L4.8921866,5.534364 L3.3140619,5.534364 L3.3140619,3.9562395 L2.367187,3.9562395 C1.932098,3.9562395 1.57812476,4.3102127 1.57812476,4.7453018 L1.57812476,6.6390513 L18.621872,6.6390513 Z M3.99854,9.87421 L5.57666476,9.87421 L5.57666476,11.4523348 L3.99854,11.4523348 L3.99854,9.87421 Z M9.31104,9.87421 L10.8891648,9.87421 L10.8891648,11.4523348 L9.31104,11.4523348 L9.31104,9.87421 Z M14.62354,9.87421 L16.2016648,9.87421 L16.2016648,11.4523348 L14.62354,11.4523348 L14.62354,9.87421 Z M3.99854,13.03046 L5.57666476,13.03046 L5.57666476,14.6085848 L3.99854,14.6085848 L3.99854,13.03046 Z M9.31104,13.03046 L10.8891648,13.03046 L10.8891648,14.6085848 L9.31104,14.6085848 L9.31104,13.03046 Z M3.99854,16.18671 L5.57666476,16.18671 L5.57666476,17.7648348 L3.99854,17.7648348 L3.99854,16.18671 Z M9.31104,16.18671 L10.8891648,16.18671 L10.8891648,17.7648348 L9.31104,17.7648348 L9.31104,16.18671 Z M14.62354,13.03046 L16.2016648,13.03046 L16.2016648,14.6085848 L14.62354,14.6085848 L14.62354,13.03046 Z" id="Combined-Shape"></path>
                        </g>
                    </g>
                </g>
            </g>
        </g>
    </g>
</svg>