<?xml version="1.0" encoding="UTF-8"?>
<svg width="23px" height="22px" viewBox="0 0 23 22" version="1.1" xmlns="http://www.w3.org/2000/svg" xmlns:xlink="http://www.w3.org/1999/xlink">
    <!-- Generator: sketchtool 52.3 (67297) - http://www.bohemiancoding.com/sketch -->
    <title>DDC4E95A-C292-49B0-97CF-2D81A97181B9</title>
    <desc>Created with sketchtool.</desc>
    <g id="WEB-CentricView-3.0---VSAT-WebApp-Version" stroke="none" stroke-width="1" fill="none" fill-rule="evenodd">
        <g id="REPOSITORY" transform="translate(-220.000000, -111.000000)" fill="#EF7622">
            <g id="MENU_IZQUIERDO" transform="translate(-1.000000, 60.000000)">
                <g id="MENU-IZQUIERDO">
                    <g id="HEADER">
                        <g id="icon_search" transform="translate(221.000000, 51.000000)">
                            <path d="M2.599494,21.539104 L8.1071179,16.243568 C9.7256977,17.605144 11.7622015,18.351158 13.882291,18.351158 C18.8356754,18.351158 22.86572,14.3211145 22.86572,9.3677301 C22.86572,4.4143447 18.8356754,0.384300159 13.882291,0.384300158 C8.9289066,0.384300157 4.898862,4.4143442 4.898862,9.3677301 C4.898862,11.2272996 5.459741,12.9993791 6.5244705,14.5144538 L0.975054996,19.85022 C0.743439996,20.073244 0.615719996,20.373213 0.615719996,20.694662 C0.615719995,20.998926 0.731722995,21.287569 0.942639995,21.506685 C1.390638,21.972261 2.133527,21.987102 2.599494,21.539104 Z M20.5222168,9.3677291 C20.5222168,13.0290612 17.5436241,16.007656 13.882291,16.007656 C10.220958,16.007656 7.2423651,13.0290632 7.2423651,9.3677301 C7.2423651,5.7063956 10.220958,2.7278034 13.882291,2.7278034 C17.5436241,2.7278034 20.5222168,5.7063956 20.5222168,9.3677291 Z" id="Fill-505"></path>
                        </g>
                    </g>
                </g>
            </g>
        </g>
    </g>
</svg>