<?xml version="1.0" encoding="UTF-8"?>
<svg width="23px" height="25px" viewBox="0 0 23 25" version="1.1" xmlns="http://www.w3.org/2000/svg" xmlns:xlink="http://www.w3.org/1999/xlink">
    <!-- Generator: Sketch 52.3 (67297) - http://www.bohemiancoding.com/sketch -->
    <title>left_end</title>
    <desc>Created with Sketch.</desc>
    <g id="AVI-Customer" stroke="none" stroke-width="1" fill="none" fill-rule="evenodd">
        <g id="left_end" fill="#EF7622">
            <path d="M2.82723988,12.1910718 L13.5496273,22.9134593 C13.6277322,22.9915641 13.6277322,23.1181971 13.5496273,23.196302 L12.4182565,24.3276728 C12.3401516,24.4057777 12.2135186,24.4057777 12.1354138,24.3276728 L0.00410786856,12.1963669 L0.00529510967,12.1951797 L-5.1691984e-13,12.1898846 L12.1313059,0.0585786438 C12.2094108,-0.0195262146 12.3360438,-0.0195262146 12.4141486,0.0585786438 L13.5455195,1.18994949 C13.6236243,1.26805435 13.6236243,1.39468735 13.5455195,1.47279221 L2.82723988,12.1910718 Z M11.8272399,12.1910718 L22.5496273,22.9134593 C22.6277322,22.9915641 22.6277322,23.1181971 22.5496273,23.196302 L21.4182565,24.3276728 C21.3401516,24.4057777 21.2135186,24.4057777 21.1354138,24.3276728 L9.00410787,12.1963669 L9.00529511,12.1951797 L9,12.1898846 L21.1313059,0.0585786438 C21.2094108,-0.0195262146 21.3360438,-0.0195262146 21.4141486,0.0585786438 L22.5455195,1.18994949 C22.6236243,1.26805435 22.6236243,1.39468735 22.5455195,1.47279221 L11.8272399,12.1910718 Z" id="Combined-Shape-Copy-6"></path>
        </g>
    </g>
</svg>